<?xml version="1.0" standalone="no"?>
<!DOCTYPE svg PUBLIC "-//W3C//DTD SVG 20010904//EN"
 "http://www.w3.org/TR/2001/REC-SVG-20010904/DTD/svg10.dtd">
<svg version="1.0" xmlns="http://www.w3.org/2000/svg"
 width="431.000000pt" height="431.000000pt" viewBox="0 0 431.000000 431.000000"
 preserveAspectRatio="xMidYMid meet">
<metadata>
Created by potrace 1.14, written by Peter Selinger 2001-2017
</metadata>
<g transform="translate(0.000000,431.000000) scale(0.100000,-0.100000)"
fill="#000000" stroke="none">
<path d="M2302 3677 c-42 -42 -52 -59 -52 -86 0 -30 -2 -33 -25 -27 -14 3 -36
9 -49 12 -35 8 -123 -80 -128 -128 l-3 -35 -47 12 -47 12 -50 -51 -51 -52 0
-132 c0 -73 -3 -132 -7 -132 -5 0 -72 16 -150 37 l-143 37 0 101 0 101 -72 19
c-40 10 -77 20 -83 21 -5 1 -61 16 -124 33 l-114 32 -41 -38 c-60 -57 -65 -65
-66 -102 0 -24 -4 -32 -14 -28 -8 3 -30 9 -50 12 -32 7 -39 3 -86 -41 l-50
-49 0 -137 0 -137 -47 14 -48 15 -52 -52 -53 -52 0 -433 c0 -238 -3 -433 -6
-433 -3 0 -24 5 -48 11 l-43 11 -51 -52 -52 -52 0 -198 0 -199 53 -15 c28 -8
73 -20 99 -26 l47 -12 3 -101 3 -102 65 -18 c36 -9 123 -33 195 -52 l130 -34
52 51 c43 42 53 59 53 85 0 38 -3 37 55 22 l43 -11 51 50 51 51 0 134 0 135
49 -13 49 -13 51 52 c40 41 51 59 51 84 0 18 5 32 11 32 6 0 70 -16 143 -36
72 -20 138 -37 146 -39 8 -2 60 -15 115 -30 55 -15 141 -38 190 -51 106 -29
368 -99 443 -120 l52 -15 0 -199 0 -199 43 -11 c23 -7 68 -19 99 -27 l57 -16
3 -100 3 -101 95 -25 95 -26 3 -101 3 -101 172 -46 c95 -25 184 -49 199 -53
24 -5 34 1 78 47 39 41 50 60 50 86 0 18 1 33 3 33 1 0 23 -7 48 -14 l46 -14
52 52 51 52 0 200 0 200 -97 25 -98 25 -3 502 -2 501 -43 11 c-23 7 -68 19
-99 27 l-58 16 -2 201 -3 200 -97 26 -98 25 0 101 0 102 -62 16 c-35 9 -121
31 -193 51 -71 19 -133 35 -136 35 -4 0 -29 -23 -58 -51 -42 -42 -51 -56 -51
-86 0 -24 -4 -34 -12 -31 -7 3 -120 33 -250 68 l-238 63 0 35 c0 37 2 37 75
17 15 -4 34 8 73 45 43 42 52 57 52 86 0 32 2 34 28 28 15 -4 37 -10 48 -15
18 -6 31 2 73 46 l51 53 0 199 0 200 -87 23 c-49 13 -93 25 -98 27 -6 2 -34
-20 -63 -50z"/>
</g>
</svg>
